<svg width="25" height="35" viewBox="0 0 25 35" fill="none" xmlns="http://www.w3.org/2000/svg">
<path d="M12.613 0.549316C5.83202 0.549316 0.347656 5.80525 0.347656 12.3038C0.347656 21.1197 12.613 34.1336 12.613 34.1336C12.613 34.1336 24.8784 21.1197 24.8784 12.3038C24.8784 5.80525 19.394 0.549316 12.613 0.549316ZM3.85204 12.3038C3.85204 7.66918 7.77696 3.90774 12.613 3.90774C17.4491 3.90774 21.374 7.66918 21.374 12.3038C21.374 17.1399 16.3277 24.3773 12.613 28.8944C8.96845 24.4109 3.85204 17.0896 3.85204 12.3038Z" fill="#fff"/>
<path d="M12.6119 16.502C15.0312 16.502 16.9924 14.6225 16.9924 12.304C16.9924 9.98548 15.0312 8.10596 12.6119 8.10596C10.1927 8.10596 8.23145 9.98548 8.23145 12.304C8.23145 14.6225 10.1927 16.502 12.6119 16.502Z" fill="#fff"/>
</svg>
